<svg width="244" height="286" viewBox="0 0 244 286" fill="none" xmlns="http://www.w3.org/2000/svg">
<path d="M223.973 228.094L243.144 203.386M223.973 228.094L9.49008 214.901M223.973 228.094V285.447M243.144 203.386L54.3038 193.551L9.49008 214.901M243.144 203.386V249.346L223.973 285.447M9.49008 214.901V233.141V235.389V251.38V268.971L223.973 285.447" stroke="#27648D" stroke-width="0.484577"/>
<path d="M28.4777 211.16L54.6449 198.708L231.273 207.914L219.643 222.936L61.1867 213.241L44.8322 212.201L28.4777 211.16Z" stroke="#27648D" stroke-width="0.78"/>
<path d="M223.973 228.094L243.144 203.386M223.973 228.094L9.49008 214.901M223.973 228.094V285.447M243.144 203.386L54.3038 193.551M243.144 203.386V249.346L223.973 285.447M9.49008 214.901L54.3038 193.551M9.49008 214.901V233.141V235.389V251.38V268.971L223.973 285.447M54.3038 193.551V11.6606" stroke="#27648D" stroke-width="0.78"/>
<path d="M0.855652 1L54.4014 11.903H243.144" stroke="#27648D" stroke-width="0.78"/>
<path d="M29.4441 40.2507L55.5203 31.657C55.9798 31.5215 56.4656 31.4925 56.9386 31.5724C57.4117 31.6522 57.859 31.8387 58.2446 32.1168C58.6303 32.395 58.9436 32.7572 59.1595 33.1742C59.3754 33.5913 59.4879 34.0517 59.4879 34.5187V38.9617" stroke="#27648D" stroke-width="0.78" stroke-miterlimit="10"/>
<path d="M29.2005 43.1582C30.1372 43.1582 30.8965 41.8565 30.8965 40.2507C30.8965 38.645 30.1372 37.3433 29.2005 37.3433C28.2638 37.3433 27.5045 38.645 27.5045 40.2507C27.5045 41.8565 28.2638 43.1582 29.2005 43.1582Z" fill="#27648D"/>
<path d="M61.457 53.1402C70.8057 51.5276 77.8374 47.0119 77.1628 43.054C76.4881 39.0962 68.3626 37.195 59.0139 38.8075C49.6652 40.4201 42.6335 44.9357 43.3082 48.8936C43.9828 52.8514 52.1083 54.7527 61.457 53.1402Z" fill="white" stroke="#27648D" stroke-width="0.78" stroke-miterlimit="10"/>
</svg>
